HIERARCHY
ROOT Hips
{
	OFFSET -3.958830 18.904000 13.208200
	CHANNELS 6 Xposition Yposition Zposition Zrotation Yrotation Xrotation 
	JOINT LHipJoint
	{
		OFFSET 0.000000 0.000000 0.000000
		CHANNELS 3 Zrotation Yrotation Xrotation
		JOINT LeftUpLeg
		{
			OFFSET 1.800000 -1.400000 0.085000
			CHANNELS 3 Zrotation Yrotation Xrotation
			JOINT LeftLeg
			{
				OFFSET 2.215000 -6.000000 0.000000
				CHANNELS 3 Zrotation Yrotation Xrotation
				JOINT LeftFoot
				{
					OFFSET 2.500000 -6.900000 0.000000
					CHANNELS 3 Zrotation Yrotation Xrotation
					JOINT LeftToeBase
					{
						OFFSET 0.200000 -0.500000 1.950000
						CHANNELS 3 Zrotation Yrotation Xrotation
						End Site
						{
							OFFSET 0.000000 0.000000 0.000000
						}
					}
				}
			}
		}
	}
	JOINT RHipJoint
	{
		OFFSET 0.000000 0.000000 0.000000
		CHANNELS 3 Zrotation Yrotation Xrotation
		JOINT RightUpLeg
		{
			OFFSET -1.800000 -1.400000 0.085000
			CHANNELS 3 Zrotation Yrotation Xrotation
			JOINT RightLeg
			{
				OFFSET -2.215000 -6.000000 0.000000
				CHANNELS 3 Zrotation Yrotation Xrotation
				JOINT RightFoot
				{
					OFFSET -2.500000 -6.900000 0.000000
					CHANNELS 3 Zrotation Yrotation Xrotation
					JOINT RightToeBase
					{
						OFFSET -0.200000 -0.500000 1.950000
						CHANNELS 3 Zrotation Yrotation Xrotation
						End Site
						{
							OFFSET 0.000000 0.000000 0.000000
						}
					}
				}
			}
		}
	}
	JOINT LowerBack
	{
		OFFSET 0.000000 0.000000 0.000000
		CHANNELS 3 Zrotation Yrotation Xrotation
		JOINT Spine
		{
			OFFSET -0.087000 1.940000 -0.288900
			CHANNELS 3 Zrotation Yrotation Xrotation
			JOINT Spine1
			{
				OFFSET 0.000000 1.950000 0.060000
				CHANNELS 3 Zrotation Yrotation Xrotation
				JOINT Neck
				{
					OFFSET 0.000000 0.000000 0.000000
					CHANNELS 3 Zrotation Yrotation Xrotation
					JOINT Neck1
					{
						OFFSET 0.000000 1.600000 0.340000
						CHANNELS 3 Zrotation Yrotation Xrotation
						JOINT Head
						{
							OFFSET 0.000000 1.667000 -0.240000
							CHANNELS 3 Zrotation Yrotation Xrotation
							End Site
							{
								OFFSET 0.000000 0.000000 0.000000
							}
						}
					}
				}
				JOINT LeftShoulder
				{
					OFFSET 0.000000 0.000000 0.000000
					CHANNELS 3 Zrotation Yrotation Xrotation
					JOINT LeftArm
					{
						OFFSET 2.700000 1.550000 -0.730000
						CHANNELS 3 Zrotation Yrotation Xrotation
						JOINT LeftForeArm
						{
							OFFSET 5.450000 0.000000 0.000000
							CHANNELS 3 Zrotation Yrotation Xrotation
							JOINT LeftHand
							{
								OFFSET 3.450000 0.000000 0.000000
								CHANNELS 3 Zrotation Yrotation Xrotation
								JOINT LeftHandIndex1
								{
									OFFSET 0.750000 0.000000 0.000000
									CHANNELS 3 Zrotation Yrotation Xrotation
									End Site
									{
										OFFSET 0.000000 0.000000 0.000000
									}
								}
							}
						}
					}
				}
				JOINT RightShoulder
				{
					OFFSET 0.000000 0.000000 0.000000
					CHANNELS 3 Zrotation Yrotation Xrotation
					JOINT RightArm
					{
						OFFSET -2.700000 1.550000 -0.730000
						CHANNELS 3 Zrotation Yrotation Xrotation
						JOINT RightForeArm
						{
							OFFSET -5.450000 0.000000 0.000000
							CHANNELS 3 Zrotation Yrotation Xrotation
							JOINT RightHand
							{
								OFFSET -3.450000 0.000000 0.000000
								CHANNELS 3 Zrotation Yrotation Xrotation
								JOINT RightHandIndex1
								{
									OFFSET -0.750000 0.000000 0.000000
									CHANNELS 3 Zrotation Yrotation Xrotation
									End Site
									{
										OFFSET 0.000000 0.000000 0.000000
									}
								}
							}
						}
					}
				}
			}
		}
	}
}
MOTION
Frames: 10
Frame Time: 0.016667
0.412180 12.992330 -2.493440 -63.662802 -61.138299 12.444725 -16.042779 10.229750 4.073767 -28.366395 -9.629229 -61.130849 38.179889 -0.827434 35.193397 0.662549 6.711385 1.751727 0.708260 0.866180 0.584150 18.124832 -5.588995 6.767683 -47.160518 17.694203 -12.830472 129.697062 -20.787653 6.291738 -2.191972 -8.128193 1.265420 0.290610 -0.269330 0.293440 -2.640468 -3.685734 -10.039159 -2.052843 16.410310 63.511522 -12.285699 15.490452 24.477794 12.968372 3.024735 -18.391193 2.422936 3.513230 60.006347 5.799040 -0.339600 -13.127020 -23.805669 -33.040085 14.914658 -21.957145 -2.398435 -3.034133 15.802387 -2.315036 -1.103396 -3.409791 3.459621 0.279930 -0.295870 0.552460 0.060350 -5.536318 45.696696 -0.063113 -15.006419 10.277854 -32.843702 -76.973133 33.505389 -27.363590 3.840559 -1.882625 0.352020 -0.076150 -0.318990 0.176700 
0.344450 13.023950 -2.473540 -59.327430 -66.276287 5.432114 -16.122164 10.544966 3.604748 -29.523228 -7.931839 -62.027354 47.850120 -2.901975 41.253775 1.182235 9.271198 0.970104 0.643560 0.772970 0.593210 18.116027 -5.433552 7.041286 -52.970324 19.327006 -16.802588 127.490897 -20.088073 8.002090 -2.223976 -8.276987 1.246866 0.250670 -0.243780 0.264330 -2.642843 -3.816446 -9.941235 -6.371708 21.114668 64.348624 -10.759981 17.432459 24.009020 11.527874 3.572983 -18.569243 2.784059 3.295340 60.451781 5.855620 0.520080 -12.669030 -23.164795 -32.453106 14.130505 -23.251342 -2.219120 -2.731829 14.811756 -2.479751 -0.986440 -3.424214 3.318515 0.330880 -0.285090 0.542510 0.025930 -4.030866 45.283011 2.207852 -14.617193 7.006034 -32.764755 -75.769758 31.151669 -24.957165 3.927741 -1.865913 0.285140 -0.024580 -0.281630 0.135750 
0.326640 13.074120 -2.372120 -64.712376 -69.524485 5.115696 -15.860550 11.220262 3.523126 -26.328541 -4.967115 -60.902020 56.003413 -7.416520 50.896761 1.672541 12.328999 -0.045968 0.651630 0.701810 0.684300 18.096184 -6.801160 6.148068 -49.457597 22.387431 -18.850704 120.713033 -37.575137 17.748540 -2.632702 -9.964347 0.640594 0.238110 -0.388550 0.313880 -3.089124 -2.809155 -9.475162 -3.738639 19.882503 69.348970 -12.923395 18.053682 23.830805 10.771045 4.909655 -20.588528 3.592773 2.876242 63.976964 8.006910 1.154670 -17.104460 -24.799117 -34.046171 13.769654 -22.781890 -0.331202 -2.325088 13.116210 -0.651896 -0.851098 -3.408749 3.195706 0.569080 -0.388080 0.640490 -0.115550 -1.506623 45.072519 4.073104 -10.137298 2.673006 -35.404402 -75.206352 30.385343 -23.311683 4.129325 -1.819738 0.235380 -0.084620 -0.193990 0.002740 
0.295270 13.083140 -2.312980 -66.511350 -69.926442 4.524206 -15.873235 11.276930 3.991905 -24.778216 -6.292122 -60.030021 63.976234 -12.652634 56.755775 2.189115 14.768089 -0.653621 0.647220 0.695590 0.801430 17.995946 -7.367529 5.271647 -45.995356 22.499882 -20.268167 111.716193 -54.543111 29.423041 -2.693433 -10.077578 0.603577 0.247280 -0.449050 0.219010 -3.160201 -2.611566 -9.434244 -3.579945 17.823962 71.105089 -12.866662 17.177682 25.135166 10.731306 5.085332 -22.081990 1.751785 3.097815 66.479852 6.563830 1.654520 -22.517280 -23.076124 -34.915062 13.294754 -25.625518 0.283782 -1.660925 10.800125 1.217404 -0.593065 -3.369078 2.845220 0.723410 -0.470130 0.713830 -0.190320 -3.058283 45.140146 6.147360 -0.747651 -1.593746 -39.976745 -74.179144 31.319514 -23.482296 4.463682 -1.726908 0.142440 0.077850 -0.172470 -0.077830 
0.261950 13.129240 -2.281080 -63.051360 -69.963629 0.807966 -16.005128 10.823845 4.434463 -19.153762 -8.292177 -61.476677 65.200758 -17.964909 69.094672 2.853678 17.283209 -1.175128 0.677480 0.714370 0.825580 17.950922 -7.016333 5.276540 -46.643599 23.181538 -21.755862 97.232580 -61.176263 41.459434 -2.760183 -10.386626 0.513011 0.248120 -0.453780 0.229300 -3.240878 -2.620007 -9.739690 -5.197129 16.827199 71.219168 -12.045239 16.094747 26.182429 9.653519 5.215848 -23.247598 2.040316 2.849881 67.855434 7.596710 2.140680 -21.121200 -23.660740 -36.162007 13.694608 -25.964926 2.491127 -1.505333 9.081026 2.241536 -0.422726 -3.333379 2.820809 0.733320 -0.475700 0.734690 -0.159200 0.257469 45.884944 7.909600 1.590009 -1.730129 -38.241885 -70.294292 27.173162 -20.246002 4.434854 -1.806206 0.153450 0.065080 -0.211510 -0.078000 
0.198610 13.226430 -2.171890 -57.393872 -69.496856 -5.187613 -16.142792 10.672532 4.691130 -16.187938 -10.589607 -57.404082 63.787440 -22.451621 84.637811 3.556142 19.829129 -1.687577 0.831070 0.927980 0.967970 17.906984 -6.447034 5.269716 -47.491064 23.297364 -20.677099 83.803433 -60.013172 49.489677 -3.012065 -11.136113 0.266549 0.327090 -0.601350 0.220670 -2.915019 -3.402438 -9.989579 -7.935007 16.997634 70.147289 -8.927204 15.499094 27.892459 8.332666 6.454826 -24.756774 3.765830 1.855619 75.400195 8.501790 2.776960 -23.934390 -25.920992 -38.631594 14.015527 -29.118954 3.051918 -1.756314 10.012178 5.469241 -0.107522 -3.262912 2.788558 0.803980 -0.578910 0.887800 -0.157920 5.400986 47.192270 10.235403 8.034727 -3.297288 -37.607327 -67.798408 26.928299 -20.028163 4.356458 -1.843338 0.229440 0.071950 -0.306890 -0.091910 
0.162890 13.219810 -2.093050 -55.696896 -67.285036 -7.603956 -16.263956 10.234845 5.040154 -7.715095 -13.436240 -54.069490 58.996453 -25.065669 104.871623 4.289762 21.945581 -1.947317 0.825480 0.931730 1.032390 17.912494 -5.753263 5.454335 -46.767844 22.641794 -19.378350 57.870788 -59.018306 68.107213 -3.444180 -13.240201 -0.257084 0.258880 -0.709960 0.220610 -2.731194 -4.012154 -10.402154 -9.744054 15.299825 72.269516 -6.716781 13.568357 24.598483 6.879186 8.147007 -26.166944 9.754701 -2.068703 80.229995 5.922160 4.409400 -21.806620 -27.451869 -39.973820 15.354657 -29.341873 8.239326 -2.341290 5.822610 4.643414 -0.143940 -3.104774 2.754107 0.804980 -0.608160 0.960960 -0.173250 11.029482 46.514614 12.095881 13.513038 -2.407073 -34.275267 -62.916685 26.302197 -18.843519 4.072661 -1.891343 0.290720 -0.003640 -0.368680 -0.115060 
0.123290 13.230070 -2.000470 -53.596691 -68.417238 -10.594376 -16.257472 10.418204 5.165586 -0.696838 -14.451660 -49.628996 60.614069 -28.843884 109.202940 4.601681 22.881587 -2.056181 0.985970 1.093080 1.208910 17.952446 -5.651178 5.034564 -43.260756 21.168947 -20.733115 30.613539 -49.363378 86.929017 -3.971232 -15.919222 -0.925598 0.333040 -0.880870 0.230710 -2.228945 -4.796824 -10.430009 -12.520264 16.186921 72.193408 -3.564368 13.306942 23.110657 6.191403 8.728108 -26.063415 12.993978 -4.760489 84.339375 3.078340 5.724060 -24.065450 -30.389872 -39.900925 15.389198 -30.870562 9.279730 -2.873709 7.541239 5.036228 0.079169 -2.980911 2.831959 0.866340 -0.699900 1.095930 -0.138430 15.912757 45.588450 12.806425 18.475709 -1.787434 -32.055445 -58.480764 26.731261 -18.507990 3.767313 -1.953870 0.345400 -0.045310 -0.508420 -0.156630 
0.044940 13.222570 -1.899760 -57.397774 -69.894834 -7.470525 -16.159100 11.091742 5.550843 5.526720 -15.181356 -46.874995 59.271212 -31.000830 113.762014 4.639769 23.337422 -2.182336 1.147120 1.238290 1.362830 17.970047 -6.607164 3.623801 -36.778050 17.553386 -22.444908 10.972165 -33.706528 95.492158 -3.785733 -15.659781 -0.972032 0.438610 -0.997180 0.255660 -1.744922 -5.258178 -10.060101 -11.718612 14.385083 70.749474 -1.421354 13.026826 24.451729 6.340090 8.373181 -26.181177 12.023072 -4.666149 88.496154 2.187130 5.786380 -27.040450 -32.343370 -39.963477 14.671986 -32.309866 7.671893 -3.315982 11.414858 4.293407 0.087520 -2.932588 2.921893 0.951740 -0.768650 1.186390 -0.139980 17.788183 45.413929 13.179078 21.887950 -2.521047 -29.436685 -51.770028 23.303815 -15.266009 3.520985 -1.984339 0.366670 -0.055270 -0.573270 -0.209750 
-0.052930 13.181520 -1.825940 -61.233466 -70.785929 -1.111499 -16.229843 11.523814 5.956734 12.852511 -16.286151 -46.168834 55.347694 -31.714054 119.338513 4.455379 23.415046 -2.301995 1.236310 1.355320 1.412570 17.862663 -7.466462 2.586922 -30.472081 11.804289 -28.343608 -2.086002 -18.156566 92.249844 -3.164723 -13.521607 -0.551358 0.572920 -0.970240 0.251540 -1.676405 -5.159067 -9.726485 -8.186320 10.607757 64.877434 -1.317771 12.469743 31.200331 6.716094 8.097367 -29.550968 10.983211 -4.215233 92.727843 2.778760 4.972150 -28.625830 -31.585530 -42.915441 13.923862 -30.489700 5.270526 -5.435139 18.187741 0.168434 -1.211026 -3.047823 2.943745 1.018160 -0.752450 1.207230 -0.151770 16.206014 48.473750 13.941004 29.507959 -4.304046 -25.681633 -43.668572 12.230151 -9.574932 3.366641 -1.915297 0.315980 0.070310 -0.529430 -0.241680 
